<?xml version="1.0" encoding="UTF-8"?>
<svg id="Layer_2" xmlns="http://www.w3.org/2000/svg" viewBox="0 0 141.73 52.19">
  <defs>
    <style>
      .cls-1, .cls-2 {
        fill: #fff;
      }

      .cls-1, .cls-3, .cls-4 {
        fill-rule: evenodd;
      }

      .cls-3 {
        fill: #e50e46;
      }

      .cls-4 {
        fill: #e40138;
      }
    </style>
  </defs>
  <g id="Layer_1-2" data-name="Layer_1">
    <g>
      <path class="cls-2" d="M126.48,41.37l5.94-8.86c.87-1.28,1.46-2.1,1.46-2.74,0-.41-.18-.59-.64-.59-1.1,0-2.74,1.51-5.34,4.29-1.23,1.32-1.74,2.24-2.15,2.24-.14,0-.23-.09-.23-.18,0-.27.38-.73,1.06-1.51l1.46-1.6c2.33-2.51,3.88-3.97,5.39-3.97,1.1,0,1.78.87,1.78,1.96,0,1.92-.91,3.52-2.19,5.66,1.23-1.19,2.51-2.42,3.93-3.65,1.01-2.65,1.87-3.97,3.74-3.97.64,0,1.05.32,1.05.73,0,.87-1.32,1.74-3.33,3.24-1.1.82-1.87,1.78-1.87,3.38,0,.73.45,1.23,1.14,1.23,1.87,0,3.06-2.19,3.47-2.19.14,0,.27.09.27.23,0,.55-2.05,2.56-3.65,2.56-1.23,0-1.92-.64-1.92-1.78,0-.5.23-1.23.59-2.19-1.96,1.64-4.15,4.11-6.76,7.4l-3.2.32Z"/>
      <path class="cls-2" d="M123.83,29.96c0-.5-.37-.91-.82-.91-1.55,0-4.88,2.51-6.62,7.21,2.52-.53,7.44-3.02,7.44-6.3M113.92,34.75c-.46.59-.78.91-1.01.91-.18,0-.23-.05-.23-.18,0-.18.6-.96,1.79-2.24,2.92-3.2,5.85-4.75,8.36-4.75,1.55,0,2.51.91,2.51,2.1,0,2.38-3.24,5.02-9.18,6.39-.14.82-.23,1.41-.23,1.83,0,1.37.69,2.1,1.83,2.1,1.73,0,3.47-1.23,5.62-3.33,1.74-1.74,2.33-2.69,2.65-2.69.18,0,.27.09.27.23,0,.32-.82,1.19-2.33,2.74-2.42,2.42-4.38,3.75-6.44,3.75-2.24,0-3.88-2.06-3.88-4.94,0-.59.09-1.23.27-1.92"/>
      <path class="cls-2" d="M97.49,39.36c0,.87.41,1.41,1.09,1.41.96,0,2.51-.96,4.25-2.88,2.65-2.92,3.88-5.57,3.88-7.31,0-.78-.64-1.42-1.51-1.42-1.42,0-3.24,1.23-5.02,3.7-1.87,2.65-2.69,5.11-2.69,6.48M117.39,13.61l2.97-.14-12.46,21.64c-1.46,2.51-2.24,4.16-2.24,4.98,0,.37.32.64.73.64.59,0,2.33-1.32,4.98-4.06,1.09-1.14,1.51-1.78,1.78-1.78.14,0,.27.04.27.18,0,.32-.73,1.19-2.1,2.56-2.42,2.47-4.02,3.98-5.71,3.98-1.23,0-1.87-.83-1.87-2.29,0-.46.09-1.01.23-1.73-2.15,2.69-4.11,4.02-5.75,4.02s-2.65-1.7-2.65-4.67c0-.68.09-1.37.32-2.15-.41.64-.73.91-.97.91-.18,0-.27-.05-.27-.18,0-.23.74-1.14,2.15-2.56,3.11-3.11,6.07-4.48,8.22-4.48,1.51,0,2.42.87,2.42,2.1,0,.27-.04.6-.18,1.01l10.14-17.99Z"/>
      <path class="cls-2" d="M89.04,31.41c-2.74,2.69-3.74,4.28-4.21,4.28-.14,0-.18-.05-.18-.14,0-.36,1.93-2.6,5.81-6.6l3.29-.23-4.52,7.1c-1.37,2.14-2.24,3.5-2.24,4.28,0,.45.36.86.78.86,1.23,0,2.88-1.36,5.34-3.96,1.28-1.36,1.78-2.09,2.1-2.09.18,0,.27.09.27.23,0,.32-.73,1.09-2.1,2.5-2.46,2.5-4.11,3.97-5.57,3.97s-2.47-1.11-2.47-2.88c0-2.46,2.46-5.44,3.7-7.32M96.53,19.45c.73,0,1.23.55,1.23,1.32,0,.96-.87,2.05-1.83,2.05-.73,0-1.28-.55-1.28-1.32,0-.94.88-2.06,1.87-2.06"/>
      <path class="cls-2" d="M56.75,36.81c-2.1,0-3.19.73-3.19,1.83,0,1.23,1.78,2.28,4.38,2.28,2.19,0,4.43-.78,6.39-2.24-2.4-.88-4.98-1.87-7.58-1.87M68.72,25.8c-6.71,0-11.05-3.61-11.05-8.4,0-5.39,4.7-9.63,11.92-9.63,4.75,0,9.09,2.01,12.56,5.8,3.52-3.06,6.12-4.66,8.08-4.66,1.41,0,2.33,1,2.33,2.24,0,3.74-5.11,9.04-14.93,13.2-2.79,5.57-5.84,10.09-10.14,13.47,3.61,1.37,6.66,1.92,8.86,1.92,2.88,0,5.16-1.32,7.72-3.84.87-.82,1.23-1.46,1.69-1.46.05,0,.09.05.09.14,0,.27-.59,1.14-1.83,2.28-3.47,3.2-6.58,4.76-9.13,4.76-2.19,0-5.25-.97-9.31-2.47-2.65,1.51-5.02,2.38-7.67,2.38-3.29,0-5.29-1.24-5.29-2.98s1.6-2.79,4.61-2.79c2.69,0,5.48.73,8.72,1.64,2.05-1.46,4.29-5.52,7.67-12.01-1.62.27-3.25.41-4.89.41M91.87,11.42c0-1.19-.59-1.78-1.78-1.78-1.46,0-4.15,1.6-6.99,5.07,1.1,1.51,1.64,2.47,1.64,2.83,0,.18-.05.27-.14.27-.37,0-.73-1-1.92-2.51-1.42,1.96-2.88,4.29-4.2,7.22,3.62-1.33,13.38-5.67,13.38-11.1M81.64,14.07c-3.29-3.74-7.49-5.71-12.19-5.71-6.48,0-10.78,3.7-10.78,8.26,0,4.06,4.38,7.21,11.33,7.21,1.42,0,2.97-.18,4.66-.46,1.99-3.34,4.25-6.53,6.99-9.31"/>
      <path class="cls-2" d="M84.01,48.38c.28,0,.48-.07.61-.2.13-.13.19-.32.19-.55,0-.1-.02-.2-.05-.29-.03-.09-.08-.16-.15-.22-.07-.06-.15-.11-.25-.14-.1-.03-.22-.05-.36-.05h-.56v1.45h.56ZM84.01,46.25c.29,0,.54.03.76.1.21.07.39.16.52.29.14.12.24.27.31.44.06.17.1.35.1.55,0,.21-.04.4-.1.58-.07.17-.17.32-.31.45-.14.12-.31.22-.52.29-.21.07-.46.11-.74.11h-.56v1.47h-.88v-4.27h1.44Z"/>
      <polygon class="cls-2" points="87.79 46.94 87.79 48.04 89.21 48.04 89.21 48.71 87.79 48.71 87.79 49.83 89.61 49.83 89.61 50.52 86.9 50.52 86.9 46.25 89.61 46.25 89.61 46.94 87.79 46.94"/>
      <polygon class="cls-2" points="93.94 46.96 92.69 46.96 92.69 50.52 91.81 50.52 91.81 46.96 90.56 46.96 90.56 46.25 93.94 46.25 93.94 46.96"/>
      <polygon class="cls-2" points="97.68 46.94 97.68 48.12 99.21 48.12 99.21 48.82 97.68 48.82 97.68 50.52 96.79 50.52 96.79 46.25 99.51 46.25 99.51 46.94 97.68 46.94"/>
      <path class="cls-2" d="M104.89,48.38c0,.31-.05.6-.16.87-.1.27-.25.5-.45.69-.19.19-.42.35-.69.46-.27.11-.57.17-.89.17s-.62-.06-.89-.17c-.27-.11-.5-.26-.69-.46-.19-.2-.34-.42-.45-.69-.1-.26-.16-.55-.16-.87s.05-.6.16-.87c.11-.27.25-.49.45-.69.19-.2.42-.35.69-.46.27-.11.57-.17.89-.17s.62.06.89.17c.27.11.5.26.69.46.19.2.34.43.45.69.11.26.16.55.16.86M103.98,48.38c0-.22-.03-.42-.09-.6-.06-.18-.14-.33-.26-.45-.11-.12-.24-.22-.4-.29-.16-.07-.34-.1-.54-.1s-.38.03-.54.1c-.16.07-.29.16-.4.29-.11.12-.2.27-.25.45-.06.18-.09.38-.09.6s.03.43.09.6c.06.18.14.33.25.45.11.12.25.22.4.28.16.07.34.1.54.1s.38-.03.54-.1c.16-.07.29-.16.4-.28.11-.12.2-.28.26-.45.06-.18.09-.38.09-.6"/>
      <path class="cls-2" d="M110.3,48.38c0,.31-.05.6-.16.87-.1.27-.25.5-.45.69-.19.19-.42.35-.69.46-.27.11-.57.17-.89.17s-.62-.06-.89-.17c-.27-.11-.5-.26-.69-.46-.19-.2-.34-.42-.45-.69-.1-.26-.16-.55-.16-.87s.05-.6.16-.87c.1-.27.25-.49.45-.69.19-.2.42-.35.69-.46.27-.11.57-.17.89-.17s.63.06.89.17c.27.11.5.26.69.46.19.2.34.43.45.69.11.26.16.55.16.86M109.4,48.38c0-.22-.03-.42-.09-.6-.06-.18-.14-.33-.26-.45-.11-.12-.24-.22-.4-.29-.16-.07-.34-.1-.54-.1s-.38.03-.54.1c-.16.07-.29.16-.4.29-.11.12-.2.27-.25.45-.06.18-.09.38-.09.6s.03.43.09.6c.06.18.14.33.25.45.11.12.25.22.4.28.16.07.34.1.54.1s.38-.03.54-.1c.16-.07.29-.16.4-.28.11-.12.2-.28.26-.45.06-.18.09-.38.09-.6"/>
      <path class="cls-2" d="M115.42,48.38c0,.31-.05.6-.16.86-.11.26-.25.49-.44.68-.19.19-.42.34-.69.44-.27.1-.57.16-.9.16h-1.64v-4.27h1.64c.33,0,.63.05.9.16.27.11.5.25.69.44.19.19.34.41.44.68.1.26.16.55.16.85M114.51,48.38c0-.22-.03-.42-.09-.6-.06-.18-.14-.33-.25-.45-.11-.12-.25-.22-.4-.29-.16-.07-.34-.1-.54-.1h-.75v2.88h.75c.2,0,.38-.03.54-.1.16-.07.29-.16.4-.28.11-.12.19-.28.25-.46.06-.18.09-.38.09-.61"/>
      <path class="cls-1" d="M24.99,52.19C6.77,52.19,0,23.66,0,2.21,16.8-.74,33.46-.74,49.99,2.21c0,21.38-7.49,49.99-24.99,49.99"/>
      <path class="cls-4" d="M24.99,47.47C10.06,47.47,4.52,22.62,4.52,5.05c13.76,2.11,27.41,2.11,40.95,0,0,17.51-6.13,42.42-20.47,42.42"/>
      <path class="cls-3" d="M24.99,47.47c-2.97,0-5.57-.99-7.83-2.71,2.22,1.64,4.77,2.58,7.67,2.58,14.3,0,20.44-24.77,20.47-42.27l.17-.02c0,17.51-6.13,42.42-20.47,42.42"/>
      <path class="cls-2" d="M14.48,31.53c-.07-1.43.49-4.1,2.92-4.13,1.22-.02,2.52.87,3.61,1.8,1.5-2.21,3.16-4.97,4.27-7.55l.17-.45.17-.54c-.42.65-1.37-.53-1.94-1.43-.45-.71-.99-1.64-.76-2.52.12-.28.25-.23.46-.09.32.3.84.63,1.27.63.61,0,1.12-.49,1.56-.85,1.68-1.69,2.87-3.57,3.94-5.7.1-.18.46-1.07.66-1.15.15-.06.29.04.37.16.56.88.87,2.53.87,3.68,0,.62-.27.94-.56,1.48l-.6.94c-.71.97-1.38,1.81-2.14,2.74-.53.61-1.07,1.2-1.62,1.8l-.39.81c-1.59,2.91-3.29,5.73-5.06,8.53,2.49,2.2,5.27,4.27,8.74,4.27,2.2,0,3.94-1.44,4.95-3.32.62-1.37.73-2.38.73-3.86,0-.34.08-.75.35-.76.38-.01.37,1.01.37,1.44,0,1.28-.19,2.56-.58,3.77-.21.57-.45,1.14-.74,1.71-1.27,2.5-3.57,4.67-6.51,4.67s-4.85-1.86-6.93-3.59l-2.03-1.84c-.82,1.26-1.87,2.91-3.38,2.92-1.99,0-2.1-2.26-2.16-3.55M17.01,33.95c.58-.15.91-.55,1.33-.94l.52-.63.58-.76c-.79-.64-1.41-1.5-2.68-1.75-.99-.2-1.6.95-1.6,1.84,0,1.07.42,2.61,1.85,2.24"/>
    </g>
  </g>
</svg>